<svg width="24" height="24" viewBox="0 0 24 24" fill="none" xmlns="http://www.w3.org/2000/svg">
<g clip-path="url(#clip0_24_1145)">
<path d="M23.4528 12.2659C23.4528 11.282 23.373 10.5641 23.2002 9.81958H11.9657V14.2601H18.5601C18.4272 15.3637 17.7092 17.0256 16.1138 18.1423L16.0914 18.291L19.6436 21.0428L19.8897 21.0674C22.1498 18.98 23.4528 15.9088 23.4528 12.2659Z" fill="#4285F4"/>
<path d="M11.9658 23.9656C15.1965 23.9656 17.9087 22.9019 19.8897 21.0673L16.1139 18.1422C15.1034 18.8469 13.7473 19.3388 11.9658 19.3388C8.80152 19.3388 6.1159 17.2515 5.15856 14.3665L5.01823 14.3784L1.32467 17.2369L1.27637 17.3711C3.24404 21.2799 7.2858 23.9656 11.9658 23.9656Z" fill="#34A853"/>
<path d="M5.1585 14.3666C4.9059 13.6221 4.75971 12.8243 4.75971 12.0001C4.75971 11.1757 4.9059 10.378 5.14521 9.63352L5.13852 9.47496L1.39867 6.57056L1.27631 6.62876C0.465338 8.2508 0 10.0723 0 12.0001C0 13.9279 0.465338 15.7493 1.27631 17.3713L5.1585 14.3666Z" fill="#FBBC05"/>
<path d="M11.9658 4.66089C14.2126 4.66089 15.7283 5.63144 16.5925 6.44251L19.9695 3.14527C17.8955 1.21746 15.1965 0.0341797 11.9658 0.0341797C7.2858 0.0341797 3.24404 2.7198 1.27637 6.62857L5.14527 9.63333C6.11591 6.74827 8.80152 4.66089 11.9658 4.66089Z" fill="#EB4335"/>
</g>
<defs>
<clipPath id="clip0_24_1145">
<rect width="23.4528" height="24" fill="white"/>
</clipPath>
</defs>
</svg>
