<svg width="24" height="24" viewBox="0 0 24 24" fill="none" xmlns="http://www.w3.org/2000/svg">
<g clip-path="url(#clip0_24_1162)">
<path d="M24 4.55659C23.1174 4.94766 22.1693 5.2119 21.1725 5.33134C22.1894 4.72254 22.9694 3.75641 23.3372 2.60641C22.386 3.17087 21.3321 3.58096 20.2107 3.80081C19.3122 2.84533 18.0333 2.24707 16.6169 2.24707C13.8983 2.24707 11.6935 4.45193 11.6935 7.17262C11.6936 7.54968 11.7362 7.92552 11.8203 8.29307C7.72661 8.08691 4.10005 6.12619 1.6711 3.14761C1.24835 3.87693 1.00519 4.72254 1.00519 5.62308C1.00519 7.33113 1.87514 8.83949 3.19528 9.7221C2.4134 9.69719 1.64878 9.48592 0.965038 9.10585V9.16927C0.965038 11.5549 2.66152 13.5452 4.91501 13.9976C4.49216 14.1117 4.05605 14.1693 3.61808 14.1688C3.30706 14.1691 2.99671 14.1401 2.69113 14.0822C3.31792 16.0376 5.13595 17.4624 7.29114 17.5004C5.60521 18.8217 3.48174 19.6091 1.17538 19.6091C0.777953 19.6091 0.385798 19.5859 0 19.5404C2.17954 20.9389 4.76705 21.7527 7.54691 21.7527C16.6053 21.7527 21.5573 14.2502 21.5573 7.74339C21.5573 7.53201 21.552 7.31847 21.5425 7.10709C22.5044 6.41157 23.3394 5.54592 23.9978 4.55974L24 4.55659Z" fill="#1DA1F2"/>
</g>
<defs>
<clipPath id="clip0_24_1162">
<rect width="24" height="24" fill="white"/>
</clipPath>
</defs>
</svg>
