<svg width="24" height="24" viewBox="0 0 24 24" fill="none" xmlns="http://www.w3.org/2000/svg">
<path d="M9.99002 22.7499C9.79002 22.7499 9.63002 22.7099 9.51002 22.6599C9.11002 22.5099 8.43002 22.0199 8.43002 20.4699V14.0199H6.09002C4.75002 14.0199 4.27002 13.3899 4.10002 13.0199C3.93002 12.6399 3.78002 11.8699 4.66002 10.8599L12.23 2.25988C13.25 1.09988 14.08 1.17988 14.48 1.32988C14.88 1.47988 15.56 1.96988 15.56 3.51988V9.96988H17.9C19.24 9.96988 19.72 10.5999 19.89 10.9699C20.06 11.3499 20.21 12.1199 19.33 13.1299L11.76 21.7299C11.05 22.5399 10.43 22.7499 9.99002 22.7499ZM13.93 2.73988C13.9 2.77988 13.69 2.87988 13.36 3.25988L5.79002 11.8599C5.51002 12.1799 5.47002 12.3799 5.47002 12.4199C5.49002 12.4299 5.67002 12.5299 6.09002 12.5299H9.18002C9.59002 12.5299 9.93002 12.8699 9.93002 13.2799V20.4799C9.93002 20.9799 10.02 21.1999 10.06 21.2599C10.09 21.2199 10.3 21.1199 10.63 20.7399L18.2 12.1399C18.48 11.8199 18.52 11.6199 18.52 11.5799C18.5 11.5699 18.32 11.4699 17.9 11.4699H14.81C14.4 11.4699 14.06 11.1299 14.06 10.7199V3.51988C14.07 3.01988 13.97 2.80988 13.93 2.73988Z" fill="#CBD5E1"/>
</svg>
